<?xml version="1.0" encoding="UTF-8" standalone="no"?>
<!DOCTYPE svg PUBLIC "-//W3C//DTD SVG 1.1//EN" "http://www.w3.org/Graphics/SVG/1.1/DTD/svg11.dtd">
<svg width="100%" height="100%" viewBox="0 0 512 512" version="1.1" xmlns="http://www.w3.org/2000/svg" xmlns:xlink="http://www.w3.org/1999/xlink" xml:space="preserve" xmlns:serif="http://www.serif.com/" style="fill-rule:evenodd;clip-rule:evenodd;stroke-linejoin:round;stroke-miterlimit:2;">
    <g transform="matrix(1.0231,0,0,1,-4.67687,-1.27834)">
        <rect x="1.547" y="0.814" width="509.898" height="512.93" style="fill:rgb(252,107,38);"/>
    </g>
    <g transform="matrix(1.08849,0,0,1.08849,79.971,-138.258)">
        <path d="M41.91,266.31L140.82,266.49C145.48,299.05 71.53,355.65 35.77,368.8C37.04,379.07 47.34,398.13 52.98,404.34C79.53,400.84 128.98,360.94 147.82,341.01C164.71,323.14 199.13,266.49 190.44,226.85L41.97,225.84L41.91,266.32L41.91,266.31Z" style="fill:white;"/>
        <path d="M237.9,188.91C189.25,210.78 218.17,279.32 266.63,262.77C313.55,246.74 288.24,166.28 237.9,188.91" style="fill:white;"/>
        <path d="M166,351.98C169.86,364.88 191.46,375.09 201.45,383.24C208.32,388.85 233.14,408.3 240.08,410.75C246.72,407.46 266.29,393.75 270.57,386.44C263.88,376.78 233.79,356.95 223.61,348.75C204.74,333.53 179.01,330.59 166.01,351.98" style="fill:white;"/>
    </g>
    <g transform="matrix(0.617688,0,0,0.617688,-97.4336,211.2)">
        <path d="M792.91,366.49C801.69,366.49 806.08,370 806.08,377.01L806.08,386.76C806.08,394.34 801.69,398.14 792.91,398.14L742.36,398.14L742.36,384.03L786.07,384.03C788.24,384.03 789.32,382.81 789.32,380.35C789.32,378.3 788.24,377.27 786.07,377.27L754.93,377.27C746.15,377.27 741.76,373.71 741.76,366.58L741.76,358.28C741.76,350.87 746.15,347.16 754.93,347.16L804.54,347.16L804.54,360.42L761.77,360.42C759.6,360.42 758.52,361.45 758.52,363.5C758.52,365.55 759.6,366.49 761.77,366.49L792.91,366.49ZM710.54,398.14L693.77,398.14L693.77,363.92C693.77,352.74 700.64,347.15 714.38,347.15L736.53,347.15L736.53,360.41L714.38,360.41C711.81,360.41 710.53,361.52 710.53,363.75L710.53,398.14L710.54,398.14ZM642.19,360.42C639.62,360.42 638.34,361.63 638.34,364.05L638.34,367.51L665.2,367.51C667.37,367.51 668.45,366.27 668.45,363.79C668.45,361.54 667.37,360.41 665.2,360.41L642.19,360.41L642.19,360.42ZM684.36,384.03L684.36,398.14L640.74,398.14C627.96,398.14 621.58,392.98 621.58,382.66L621.58,361.36C621.58,351.89 627.97,347.16 640.74,347.16L672.05,347.16C680.83,347.16 685.22,351.12 685.22,359.05L685.22,366.32C685.22,370.14 684.14,372.95 681.97,374.75C679.8,376.55 676.5,377.44 672.05,377.44L638.35,377.44L638.35,380.69C638.35,382.92 639.63,384.03 642.2,384.03L684.37,384.03L684.36,384.03ZM613.03,398.14L596.25,398.14L596.25,363.75C596.25,361.52 594.97,360.41 592.42,360.41L562.13,360.41L562.13,398.13L545.36,398.13L545.36,347.15L592.41,347.15C606.15,347.15 613.03,352.74 613.03,363.92L613.03,398.14ZM536.81,398.14L520.04,398.14L520.04,363.75C520.04,361.52 518.76,360.41 516.21,360.41L485.92,360.41L485.92,398.13L469.15,398.13L469.15,347.15L516.2,347.15C529.94,347.15 536.81,352.74 536.81,363.92L536.81,398.14ZM460.59,347.16L460.59,381.55C460.59,392.61 453.72,398.15 439.97,398.15L414.82,398.15C401.08,398.15 394.2,392.56 394.2,381.38L394.2,347.16L410.97,347.16L410.97,381.63C410.97,383.23 412.28,384.02 414.89,384.02L439.98,384.02C442.53,384.02 443.81,383.22 443.81,381.63L443.81,347.16L460.59,347.16ZM362.3,398.14L345.53,398.14L345.53,363.92C345.53,352.74 352.4,347.15 366.15,347.15L388.3,347.15L388.3,360.41L366.15,360.41C363.58,360.41 362.3,361.52 362.3,363.75L362.3,398.14ZM719.52,309.9C722.09,309.9 723.37,308.68 723.37,306.22L723.37,302.71L696.51,302.71C694.34,302.71 693.26,303.96 693.26,306.47C693.26,308.75 694.34,309.89 696.51,309.89L719.52,309.89L719.52,309.9ZM677.43,285.61L677.43,272.35L720.97,272.35C733.74,272.35 740.13,277.53 740.13,287.86L740.13,309.19C740.13,318.67 733.74,323.42 720.97,323.42L689.66,323.42C680.88,323.42 676.49,319.46 676.49,311.53L676.49,303.92C676.49,296.28 680.88,292.46 689.66,292.46L723.36,292.46L723.36,288.95C723.36,286.73 722.08,285.61 719.51,285.61L677.42,285.61L677.43,285.61ZM655.88,291.68C664.66,291.68 669.05,295.19 669.05,302.2L669.05,311.95C669.05,319.53 664.66,323.33 655.88,323.33L605.33,323.33L605.33,309.21L649.04,309.21C651.21,309.21 652.29,307.99 652.29,305.53C652.29,303.48 651.21,302.45 649.04,302.45L617.9,302.45C609.12,302.45 604.73,298.89 604.73,291.76L604.73,283.46C604.73,276.05 609.12,272.34 617.9,272.34L667.51,272.34L667.51,285.6L624.74,285.6C622.57,285.6 621.49,286.62 621.49,288.68C621.49,290.74 622.57,291.67 624.74,291.67L655.88,291.67L655.88,291.68ZM576.24,309.9C578.81,309.9 580.09,308.68 580.09,306.22L580.09,302.71L553.23,302.71C551.06,302.71 549.98,303.96 549.98,306.47C549.98,308.75 551.06,309.89 553.23,309.89L576.24,309.89L576.24,309.9ZM534.15,285.61L534.15,272.35L577.69,272.35C590.46,272.35 596.85,277.53 596.85,287.86L596.85,309.19C596.85,318.67 590.46,323.42 577.69,323.42L546.38,323.42C537.6,323.42 533.21,319.46 533.21,311.53L533.21,303.92C533.21,296.28 537.6,292.46 546.38,292.46L580.08,292.46L580.08,288.95C580.08,286.73 578.8,285.61 576.23,285.61L534.14,285.61L534.15,285.61ZM524.66,323.33L507.89,323.33L507.89,288.94C507.89,286.72 506.61,285.6 504.06,285.6L473.77,285.6L473.77,323.32L457,323.32L457,272.34L504.05,272.34C517.79,272.34 524.66,277.93 524.66,289.11L524.66,323.33ZM427.88,272.35C441.64,272.35 448.52,277.94 448.52,289.12L448.52,306.74C448.52,317.8 441.63,323.34 427.88,323.34L401.42,323.34C387.66,323.34 380.78,317.75 380.78,306.57L380.78,289.12C380.78,277.94 387.66,272.35 401.42,272.35L427.88,272.35ZM401.4,285.61C398.83,285.61 397.55,286.72 397.55,288.95L397.55,305.8C397.55,308.08 398.83,309.22 401.4,309.22L427.83,309.22C430.45,309.22 431.77,308.14 431.77,305.97L431.77,288.95C431.77,286.73 430.46,285.61 427.83,285.61L401.4,285.61ZM341.95,272.35L350.5,272.35L350.5,256.61L366.49,256.61L366.49,272.35L375.81,272.35L375.81,285.61L366.49,285.61L366.49,323.33L350.5,323.33L350.5,285.61L341.95,285.61L341.95,272.35ZM765.97,227.06L765.97,197.54L782.74,197.54L782.74,248.35C782.74,259.53 775.87,265.12 762.12,265.12L717.72,265.12L717.72,251.01L760.58,251.01C764.17,251.01 765.97,249.41 765.97,246.22L765.97,241.17L729.53,241.17C719.89,241.17 715.07,236.72 715.07,227.83L715.07,197.55L731.84,197.55L731.84,223.64C731.84,225.92 733.15,227.06 735.76,227.06L765.97,227.06ZM653.48,210.8L634.06,210.8L634.06,248.52L617.29,248.52L617.29,197.54L685.89,197.54C699.63,197.54 706.5,203.13 706.5,214.31L706.5,248.53L689.73,248.53L689.73,214.14C689.73,211.91 688.45,210.8 685.87,210.8L670.23,210.8L670.23,248.52L653.46,248.52L653.46,210.8L653.48,210.8ZM555.71,210.8L536.29,210.8L536.29,248.52L519.52,248.52L519.52,197.54L588.12,197.54C601.86,197.54 608.73,203.13 608.73,214.31L608.73,248.53L591.96,248.53L591.96,214.14C591.96,211.91 590.68,210.8 588.1,210.8L572.46,210.8L572.46,248.52L555.69,248.52L555.69,210.8L555.71,210.8ZM490.42,197.54C504.18,197.54 511.06,203.13 511.06,214.31L511.06,231.93C511.06,242.99 504.18,248.53 490.42,248.53L463.96,248.53C450.2,248.53 443.32,242.94 443.32,231.76L443.32,214.31C443.32,203.13 450.2,197.54 463.96,197.54L490.42,197.54ZM463.93,210.8C461.36,210.8 460.08,211.91 460.08,214.14L460.08,230.99C460.08,233.27 461.36,234.41 463.93,234.41L490.36,234.41C492.98,234.41 494.3,233.33 494.3,231.16L494.3,214.14C494.3,211.91 492.99,210.8 490.36,210.8L463.93,210.8ZM381.72,210.8L362.3,210.8L362.3,248.52L345.53,248.52L345.53,197.54L414.13,197.54C427.87,197.54 434.74,203.13 434.74,214.31L434.74,248.53L417.97,248.53L417.97,214.14C417.97,211.91 416.69,210.8 414.11,210.8L398.47,210.8L398.47,248.52L381.7,248.52L381.7,210.8L381.72,210.8Z" style="fill:white;fill-rule:nonzero;"/>
    </g>
</svg>
